<svg width="110" height="135" viewBox="0 0 110 135" fill="#572E91" xmlns="http://www.w3.org/2000/svg">
<path d="M23.625 30.5938C23.4062 30.5938 23.25 30.4062 23.25 30.2188V25.6562C23.25 21.4688 26.6562 18.0312 30.875 18.0312H69.844C74.0315 18.0312 77.469 21.4374 77.469 25.6562V28.0312C77.469 28.25 77.2815 28.4062 77.094 28.4062C76.9065 28.4062 76.719 28.2188 76.719 28.0312V25.6562C76.719 21.8751 73.6565 18.8124 69.8752 18.8124H30.9062C27.125 18.8124 24.0624 21.8749 24.0624 25.6562V30.2188C24.0624 30.4375 23.8749 30.5938 23.6874 30.5938H23.625Z" fill="#572E91" stroke="#572E91" stroke-width="2"/>
<path d="M69.8128 118H30.8438C26.6562 118 23.2188 114.594 23.2188 110.375V51.2188C23.2188 51 23.4062 50.8438 23.5938 50.8438C23.7812 50.8438 23.9688 51.0312 23.9688 51.2188V110.375C23.9688 114.156 27.0312 117.219 30.8125 117.219H69.7815C73.5627 117.219 76.6254 114.156 76.6254 110.375V56.6247C76.6254 56.406 76.8129 56.2497 77.0004 56.2497C77.1879 56.2497 77.3754 56.4372 77.3754 56.6247V110.375C77.3754 114.562 73.9692 118 69.7504 118H69.8128Z" fill="#572E91" stroke="#572E91" stroke-width="2"/>
<path d="M58.0628 23.375H42.5938C40.2188 23.375 38.2812 21.125 38.2812 18.375C38.2812 18.1562 38.4688 18 38.6562 18C38.8438 18 39.0312 18.1875 39.0312 18.375C39.0312 20.6875 40.6251 22.5938 42.5625 22.5938H58.0314C60.0002 22.5938 61.5626 20.7188 61.5626 18.375C61.5626 18.1562 61.7501 18 61.9376 18C62.1251 18 62.3126 18.1875 62.3126 18.375C62.3126 21.125 60.3751 23.375 58.0001 23.375H58.0628Z" fill="#572E91" stroke="#572E91" stroke-width="2"/>
<path d="M56.9688 111.906H43.7188C43.5 111.906 43.3438 111.719 43.3438 111.531C43.3438 111.344 43.5312 111.156 43.7188 111.156H56.9688C57.1875 111.156 57.3438 111.344 57.3438 111.531C57.3438 111.719 57.1562 111.906 56.9688 111.906Z" fill="#572E91" stroke="#572E91" stroke-width="2"/>
<path d="M58.8438 71.1875H58.3438C58.3438 71.1875 58.125 71.1563 58.0625 71.0625C58 70.9688 57.9688 70.875 57.9688 70.7813L58.4062 65.0625V64.6875C58.4062 64.5938 58.4375 64.4688 58.5 64.4062C58.5625 64.3438 58.6875 64.2812 58.7812 64.2812C59.75 64.2812 60.6251 64.6562 61.2812 65.2812C61.9375 65.9375 62.2812 66.8124 62.2812 67.7188C62.2812 69.625 60.7188 71.1875 58.8125 71.1875H58.8438ZM58.7812 70.4063H58.875C60.3438 70.4063 61.5625 69.1875 61.5625 67.7188C61.5625 67 61.2812 66.3126 60.7812 65.8126C60.3438 65.3751 59.8125 65.1251 59.2188 65.0313V65.0938L58.8125 70.4063L58.7812 70.4063Z" fill="#572E91" stroke="#572E91" stroke-width="2"/>
<path d="M55.2817 74.5312H45.4067C43.6255 74.5312 42.1255 73.1562 42.0005 71.375L41.5005 65.125V64.625C41.6255 62.8438 43.1255 61.4375 44.9067 61.4375H55.7817C57.5942 61.4375 59.0942 62.8437 59.1879 64.625V65.125L58.6879 71.375C58.5629 73.1562 57.0317 74.5312 55.2817 74.5312ZM44.9067 62.1872C43.5005 62.1872 42.3442 63.281 42.2505 64.656V65.031L42.7505 71.281C42.8442 72.656 44.0317 73.7185 45.4067 73.7185H55.2817C56.6567 73.7185 57.8129 72.656 57.9379 71.281L58.4379 65.031V64.656C58.3441 63.281 57.1879 62.1872 55.7817 62.1872H44.9067Z" fill="#572E91" stroke="#572E91" stroke-width="2"/>
<path d="M42.313 71.1875H41.813C39.9068 71.1875 38.3442 69.625 38.3442 67.7188C38.3442 66.7812 38.7192 65.9376 39.3442 65.2812C40.0005 64.625 40.8754 64.2812 41.7817 64.2812C41.8755 64.2812 42.0317 64.3125 42.0942 64.4062C42.1567 64.5 42.2192 64.5938 42.2192 64.6875V65.0625L42.6567 70.7813C42.6567 70.7813 42.6567 71 42.563 71.0625C42.4692 71.125 42.3755 71.1875 42.2817 71.1875H42.313ZM41.4693 65.0625C40.8443 65.1563 40.3131 65.4063 39.9068 65.8438C39.4068 66.3438 39.1255 67.0313 39.1255 67.75C39.1255 69.25 40.3443 70.4375 41.813 70.4375H41.9068L41.5005 65.125V65.0625L41.4693 65.0625Z" fill="#572E91" stroke="#572E91" stroke-width="2"/>
<path d="M46.813 68.5616C45.5942 68.5616 44.5942 67.5616 44.5942 66.3428C44.5942 65.124 45.5942 64.124 46.813 64.124C48.0318 64.124 49.0318 65.124 49.0318 66.3428C49.0318 67.5616 48.0318 68.5616 46.813 68.5616ZM46.813 64.9054C46.0318 64.9054 45.3755 65.5617 45.3755 66.3429C45.3755 67.1242 46.0318 67.7804 46.813 67.7804C47.5943 67.7804 48.2505 67.1242 48.2505 66.3429C48.2505 65.5617 47.5943 64.9054 46.813 64.9054Z" fill="#572E91" stroke="#572E91" stroke-width="2"/>
<path d="M53.8746 68.5616C52.6558 68.5616 51.6558 67.5616 51.6558 66.3428C51.6558 65.124 52.6558 64.124 53.8746 64.124C55.0934 64.124 56.0934 65.124 56.0934 66.3428C56.0934 67.5616 55.0934 68.5616 53.8746 68.5616ZM53.8746 64.9054C53.0933 64.9054 52.4371 65.5617 52.4371 66.3429C52.4371 67.1242 53.0933 67.7804 53.8746 67.7804C54.6558 67.7804 55.3121 67.1242 55.3121 66.3429C55.3121 65.5617 54.6558 64.9054 53.8746 64.9054Z" fill="#572E91" stroke="#572E91" stroke-width="2"/>
<path d="M50.3438 59.8116C49.125 59.8116 48.125 58.8116 48.125 57.5928C48.125 56.374 49.125 55.374 50.3438 55.374C51.5626 55.374 52.5626 56.374 52.5626 57.5928C52.5626 58.8116 51.5626 59.8116 50.3438 59.8116ZM50.3438 56.1554C49.5625 56.1554 48.9063 56.8117 48.9063 57.5929C48.9063 58.3742 49.5625 59.0304 50.3438 59.0304C51.125 59.0304 51.7813 58.3742 51.7813 57.5929C51.7813 56.8117 51.125 56.1554 50.3438 56.1554Z" fill="#572E91" stroke="#572E91" stroke-width="2"/>
<path d="M39.4377 84.1563C39.4377 84.1563 39.3439 84.1563 39.2814 84.125C39.0939 84.0313 39.0002 83.8125 39.0939 83.625C39.7189 82.2188 40.5627 80.9688 41.6564 79.875C43.9689 77.5625 47.0626 76.2812 50.3439 76.2812C55.2189 76.2812 59.6251 79.1562 61.5939 83.625C61.6877 83.8125 61.5939 84.0625 61.4064 84.125C61.2189 84.2188 60.9689 84.125 60.9064 83.9375C59.0626 79.75 54.9376 77.0625 50.3444 77.0625C47.2506 77.0625 44.3756 78.25 42.1882 80.4375C41.157 81.4687 40.3444 82.625 39.782 83.9375C39.7195 84.0938 39.5627 84.1563 39.4377 84.1563Z" fill="#572E91" stroke="#572E91" stroke-width="2"/>
<path d="M50.3438 62.1884C50.125 62.1884 49.9688 62.0009 49.9688 61.8134V59.4072C49.9688 59.1885 50.1562 59.0322 50.3438 59.0322C50.5312 59.0322 50.7188 59.2197 50.7188 59.4072V61.8134C50.7188 62.0322 50.5312 62.1884 50.3438 62.1884Z" fill="#572E91" stroke="#572E91" stroke-width="2"/>
<path d="M50.9057 72.5938H49.7495C48.4995 72.5938 47.4995 71.5625 47.4995 70.3438C47.4995 70.125 47.687 69.9688 47.8745 69.9688H52.7807C52.9995 69.9688 53.1557 70.1562 53.1557 70.3438C53.1557 71.5938 52.1245 72.5938 50.9057 72.5938ZM48.3119 70.7188C48.4682 71.3438 49.0619 71.8125 49.7494 71.8125H50.9056C51.5931 71.8125 52.1868 71.3438 52.3431 70.7188H48.3119Z" fill="#572E91" stroke="#572E91" stroke-width="2"/>
<path d="M50.344 89.9057C39.25 89.9057 30.188 80.8745 30.188 69.7498C30.188 58.625 39.2192 49.5938 50.344 49.5938C61.4688 49.5938 70.5 58.625 70.5 69.7498C70.5 80.8745 61.4688 89.9057 50.344 89.9057ZM50.344 50.4057C39.656 50.4057 30.969 59.0932 30.969 69.7807C30.969 80.4682 39.6565 89.1557 50.344 89.1557C61.0315 89.1557 69.719 80.4682 69.719 69.7807C69.719 59.0932 61.0315 50.4057 50.344 50.4057Z" fill="#572E91" stroke="#572E91" stroke-width="2"/>
<path d="M69.9999 55.5936C69.9999 55.5936 69.9062 55.5936 69.8437 55.5624C69.7187 55.4999 69.6249 55.3749 69.6249 55.2186V50.8124H67.8124C66.1249 50.8124 64.7812 49.4374 64.7812 47.7812V35.7812C64.7812 34.0937 66.1562 32.75 67.8124 32.75H92.6564C94.3439 32.75 95.6876 34.125 95.6876 35.7812V47.7812C95.6876 49.4687 94.3126 50.8124 92.6564 50.8124H75.5624L70.2812 55.4999C70.2812 55.4999 70.125 55.5937 70.0312 55.5937L69.9999 55.5936ZM67.8124 33.4686C66.5624 33.4686 65.5312 34.4998 65.5312 35.7498V47.7498C65.5312 48.9998 66.5624 50.031 67.8124 50.031H70.0312C70.25 50.031 70.4062 50.2185 70.4062 50.406V54.3435L75.1562 50.1247C75.1562 50.1247 75.3125 50.0309 75.4062 50.0309H92.6562C93.9062 50.0309 94.9374 48.9998 94.9374 47.7498V35.7498C94.9374 34.4998 93.9062 33.4686 92.6562 33.4686L67.8124 33.4686Z" fill="#572E91" stroke="#572E91" stroke-width="2"/>
<path d="M32.8438 50.4063C32.8438 50.4063 32.6563 50.3751 32.5938 50.3126L28.9688 47.0938H17.2188C16 47.0938 15 46.0938 15 44.875V36.5938C15 35.375 16 34.375 17.2188 34.375H34.3748C35.5936 34.375 36.5936 35.375 36.5936 36.5938V44.875C36.5936 46.0938 35.5936 47.0938 34.3748 47.0938H33.2498V50.0313C33.2498 50.0313 33.156 50.3125 33.031 50.375C32.9685 50.375 32.9373 50.4063 32.8748 50.4063L32.8438 50.4063ZM17.2188 35.1254C16.4063 35.1254 15.7813 35.7816 15.7813 36.5629V44.8441C15.7813 45.6566 16.4375 46.2816 17.2188 46.2816H29.1248C29.1248 46.2816 29.3123 46.3128 29.3748 46.3753L32.4373 49.1253V46.6878C32.4373 46.4691 32.6248 46.3128 32.8123 46.3128H34.3435C35.1248 46.3128 35.781 45.6566 35.781 44.8753V36.5941C35.781 35.8129 35.1248 35.1566 34.3435 35.1566H17.2185L17.2188 35.1254Z" fill="#572E91" stroke="#572E91" stroke-width="2"/>
<path d="M87.625 39.125H72.813C72.5942 39.125 72.438 38.9375 72.438 38.75C72.438 38.5625 72.6255 38.375 72.813 38.375H87.625C87.8437 38.375 88 38.5625 88 38.75C88 38.9375 87.8125 39.125 87.625 39.125Z" fill="#572E91" stroke="#572E91" stroke-width="2"/>
<path d="M87.625 44.5312H72.813C72.5942 44.5312 72.438 44.3438 72.438 44.1562C72.438 43.9688 72.6255 43.7812 72.813 43.7812H87.625C87.8437 43.7812 88 43.9688 88 44.1562C88 44.3438 87.8125 44.5312 87.625 44.5312Z" fill="#572E91" stroke="#572E91" stroke-width="2"/>
<path d="M30.7188 39.3115H20.875C20.6562 39.3115 20.5 39.124 20.5 38.9365C20.5 38.749 20.6875 38.5615 20.875 38.5615H30.7188C30.9375 38.5615 31.0938 38.749 31.0938 38.9365C31.0938 39.124 30.9063 39.3115 30.7188 39.3115Z" fill="#572E91" stroke="#572E91" stroke-width="2"/>
<path d="M30.7188 42.9062H20.875C20.6562 42.9062 20.5 42.7188 20.5 42.5312C20.5 42.3438 20.6875 42.1562 20.875 42.1562H30.7188C30.9375 42.1562 31.0938 42.3438 31.0938 42.5312C31.0938 42.7188 30.9063 42.9062 30.7188 42.9062Z" fill="#572E91" stroke="#572E91" stroke-width="2"/>
</svg>
